<svg width="403" height="90" viewBox="0 0 403 90" fill="none" xmlns="http://www.w3.org/2000/svg">
<path d="M81.8214 4.68689C80.5559 7.70993 78.9507 10.5807 77.0173 13.217C68.5575 4.75719 57.0746 0 45.1113 0C20.3645 0 0 20.388 0 45.1699C0 57.5316 5.06184 69.366 14.0138 77.8961L15.6776 79.3725C23.8094 86.2271 34.1088 90 44.7364 90C68.2646 90 88.0432 71.5571 89.7188 48.0523C90.9491 36.546 87.5745 21.9932 81.8214 4.68689ZM20.4231 78.1539C19.6967 79.0561 18.5835 79.5834 17.4235 79.5834C15.3027 79.5834 13.5685 77.8375 13.5685 75.7167C13.5685 73.5959 15.3144 71.85 17.4235 71.85C18.3023 71.85 19.1694 72.1547 19.849 72.7171C21.5011 74.0529 21.7589 76.5018 20.4231 78.1539ZM81.6339 64.6322C70.5025 79.4779 46.7283 74.4747 31.4842 75.1894C31.4842 75.1894 28.7775 75.3535 26.0591 75.7987C26.0591 75.7987 27.0785 75.3652 28.4026 74.8614C39.1004 71.1353 44.1622 70.4088 50.6653 67.0694C62.9098 60.8358 75.0137 47.197 77.5329 33.0074C72.8694 46.658 58.7384 58.3869 45.8612 63.1558C37.0381 66.4132 21.1027 69.5769 21.1027 69.5769L20.4583 69.2371C9.60813 63.9526 9.28004 40.4361 29.0001 32.8434C37.6357 29.5157 45.8964 31.3436 55.2233 29.1173C65.1829 26.7504 76.701 19.2748 81.3878 9.5261C86.6372 25.1217 92.9527 49.5404 81.6339 64.6322Z" fill="#77BC1F"/>
<path d="M145.536 26.84C146.347 26.84 147.051 27.0747 147.648 27.544C148.288 28.0133 148.715 28.632 148.928 29.4L161.728 71H151.744L142.72 38.552C142.549 37.8267 142.379 37.1013 142.208 36.376C142.037 35.608 141.888 34.8827 141.76 34.2H140.032C139.904 34.8827 139.755 35.608 139.584 36.376C139.456 37.1013 139.285 37.8267 139.072 38.552L130.048 71H120L132.864 29.4C133.077 28.632 133.483 28.0133 134.08 27.544C134.72 27.0747 135.445 26.84 136.256 26.84H145.536ZM152.32 51.992V59.352H129.408V51.992H152.32ZM186.453 38.616C190.421 38.616 193.258 40.0667 194.965 42.968C196.671 45.8693 197.525 50.0293 197.525 55.448C197.525 59.672 197.077 62.9787 196.181 65.368C195.327 67.7573 194.005 69.4427 192.213 70.424C190.463 71.3627 188.266 71.832 185.621 71.832C183.359 71.832 181.205 71.512 179.157 70.872C177.109 70.232 175.295 69.1653 173.717 67.672L174.357 63.448C175.765 63.8747 177.045 64.2587 178.197 64.6C179.391 64.8987 180.735 65.048 182.229 65.048C183.594 65.048 184.682 64.8133 185.493 64.344C186.303 63.8747 186.879 62.9573 187.221 61.592C187.605 60.184 187.797 58.1573 187.797 55.512C187.797 52.9093 187.626 50.9253 187.285 49.56C186.943 48.152 186.389 47.192 185.621 46.68C184.853 46.1253 183.85 45.848 182.613 45.848C181.247 45.848 179.989 46.1253 178.837 46.68C177.685 47.192 176.383 47.9387 174.933 48.92L173.717 44.568C174.57 43.416 175.658 42.392 176.981 41.496C178.346 40.6 179.839 39.896 181.461 39.384C183.082 38.872 184.746 38.616 186.453 38.616ZM173.333 39.384L174.229 45.144L175.125 46.104V66.648L174.805 67.416C174.933 68.696 175.018 70.0187 175.061 71.384C175.146 72.792 175.167 74.1787 175.125 75.544V83.16H165.653V39.384H173.333ZM224.828 38.616C228.796 38.616 231.633 40.0667 233.34 42.968C235.046 45.8693 235.9 50.0293 235.9 55.448C235.9 59.672 235.452 62.9787 234.556 65.368C233.702 67.7573 232.38 69.4427 230.588 70.424C228.838 71.3627 226.641 71.832 223.996 71.832C221.734 71.832 219.58 71.512 217.532 70.872C215.484 70.232 213.67 69.1653 212.092 67.672L212.732 63.448C214.14 63.8747 215.42 64.2587 216.572 64.6C217.766 64.8987 219.11 65.048 220.604 65.048C221.969 65.048 223.057 64.8133 223.868 64.344C224.678 63.8747 225.254 62.9573 225.596 61.592C225.98 60.184 226.172 58.1573 226.172 55.512C226.172 52.9093 226.001 50.9253 225.66 49.56C225.318 48.152 224.764 47.192 223.996 46.68C223.228 46.1253 222.225 45.848 220.988 45.848C219.622 45.848 218.364 46.1253 217.212 46.68C216.06 47.192 214.758 47.9387 213.308 48.92L212.092 44.568C212.945 43.416 214.033 42.392 215.356 41.496C216.721 40.6 218.214 39.896 219.836 39.384C221.457 38.872 223.121 38.616 224.828 38.616ZM211.708 39.384L212.604 45.144L213.5 46.104V66.648L213.18 67.416C213.308 68.696 213.393 70.0187 213.436 71.384C213.521 72.792 213.542 74.1787 213.5 75.544V83.16H204.028V39.384H211.708ZM275.066 26.84V71H265.274V26.84H275.066ZM288.378 26.84V34.52H252.026V26.84H288.378ZM301.88 38.552C305.848 38.552 309.027 39.1067 311.416 40.216C313.805 41.2827 315.512 43.032 316.536 45.464C317.603 47.896 318.136 51.16 318.136 55.256C318.136 59.2667 317.603 62.488 316.536 64.92C315.512 67.352 313.805 69.1013 311.416 70.168C309.027 71.2347 305.848 71.768 301.88 71.768C297.955 71.768 294.776 71.2347 292.344 70.168C289.955 69.1013 288.227 67.352 287.16 64.92C286.093 62.488 285.56 59.2667 285.56 55.256C285.56 51.16 286.093 47.896 287.16 45.464C288.227 43.032 289.955 41.2827 292.344 40.216C294.776 39.1067 297.955 38.552 301.88 38.552ZM301.88 45.464C300.259 45.464 298.979 45.7413 298.04 46.296C297.101 46.8507 296.44 47.832 296.056 49.24C295.672 50.648 295.48 52.6533 295.48 55.256C295.48 57.816 295.672 59.8 296.056 61.208C296.44 62.616 297.101 63.5973 298.04 64.152C298.979 64.664 300.259 64.92 301.88 64.92C303.501 64.92 304.781 64.664 305.72 64.152C306.659 63.5973 307.32 62.616 307.704 61.208C308.088 59.8 308.28 57.816 308.28 55.256C308.28 52.6533 308.088 50.648 307.704 49.24C307.32 47.832 306.659 46.8507 305.72 46.296C304.781 45.7413 303.501 45.464 301.88 45.464ZM342.51 26.2C346.009 26.2 348.953 26.584 351.342 27.352C353.774 28.0773 355.715 29.2933 357.166 31C358.659 32.7067 359.747 35.032 360.43 37.976C361.113 40.8773 361.454 44.5253 361.454 48.92C361.454 53.3147 361.113 56.984 360.43 59.928C359.747 62.8293 358.659 65.1333 357.166 66.84C355.715 68.5467 353.774 69.784 351.342 70.552C348.953 71.2773 346.009 71.64 342.51 71.64C339.139 71.64 336.046 71.576 333.23 71.448C330.414 71.32 327.726 71.1707 325.166 71L329.262 63.768C330.883 63.8533 332.803 63.9387 335.022 64.024C337.283 64.0667 339.779 64.088 342.51 64.088C344.686 64.088 346.393 63.6613 347.63 62.808C348.91 61.912 349.806 60.3547 350.318 58.136C350.873 55.9173 351.15 52.8453 351.15 48.92C351.15 44.9947 350.873 41.9227 350.318 39.704C349.806 37.4853 348.91 35.928 347.63 35.032C346.393 34.136 344.686 33.688 342.51 33.688C339.907 33.688 337.582 33.7093 335.534 33.752C333.486 33.752 331.481 33.752 329.518 33.752L325.166 26.84C327.726 26.6693 330.393 26.52 333.166 26.392C335.982 26.264 339.097 26.2 342.51 26.2ZM334.958 26.84V71H325.166V26.84H334.958ZM383.318 38.552C387.286 38.552 390.464 39.1067 392.854 40.216C395.243 41.2827 396.95 43.032 397.974 45.464C399.04 47.896 399.574 51.16 399.574 55.256C399.574 59.2667 399.04 62.488 397.974 64.92C396.95 67.352 395.243 69.1013 392.854 70.168C390.464 71.2347 387.286 71.768 383.318 71.768C379.392 71.768 376.214 71.2347 373.782 70.168C371.392 69.1013 369.664 67.352 368.598 64.92C367.531 62.488 366.998 59.2667 366.998 55.256C366.998 51.16 367.531 47.896 368.598 45.464C369.664 43.032 371.392 41.2827 373.782 40.216C376.214 39.1067 379.392 38.552 383.318 38.552ZM383.318 45.464C381.696 45.464 380.416 45.7413 379.478 46.296C378.539 46.8507 377.878 47.832 377.494 49.24C377.11 50.648 376.918 52.6533 376.918 55.256C376.918 57.816 377.11 59.8 377.494 61.208C377.878 62.616 378.539 63.5973 379.478 64.152C380.416 64.664 381.696 64.92 383.318 64.92C384.939 64.92 386.219 64.664 387.158 64.152C388.096 63.5973 388.758 62.616 389.142 61.208C389.526 59.8 389.718 57.816 389.718 55.256C389.718 52.6533 389.526 50.648 389.142 49.24C388.758 47.832 388.096 46.8507 387.158 46.296C386.219 45.7413 384.939 45.464 383.318 45.464Z" fill="#77BC1F"/>
</svg>
